HIERARCHY
ROOT Hips
{
	OFFSET 0.00000 0.00000 0.00000
	CHANNELS 6 Xposition Yposition Zposition Zrotation Yrotation Xrotation 
	JOINT LHipJoint
	{
		OFFSET 0 0 0
		CHANNELS 3 Zrotation Yrotation Xrotation
		JOINT LeftUpLeg
		{
			OFFSET 1.61328 -1.70571 0.84375
			CHANNELS 3 Zrotation Yrotation Xrotation
			JOINT LeftLeg
			{
				OFFSET 2.32400 -6.38513 0.00000
				CHANNELS 3 Zrotation Yrotation Xrotation
				JOINT LeftFoot
				{
					OFFSET 2.58843 -7.11166 0.00000
					CHANNELS 3 Zrotation Yrotation Xrotation
					JOINT LeftToeBase
					{
						OFFSET 0.17200 -0.47257 2.47970
						CHANNELS 3 Zrotation Yrotation Xrotation
						End Site
						{
							OFFSET 0.00000 -0.00000 1.26912
						}
					}
				}
			}
		}
	}
	JOINT RHipJoint
	{
		OFFSET 0 0 0
		CHANNELS 3 Zrotation Yrotation Xrotation
		JOINT RightUpLeg
		{
			OFFSET -1.49930 -1.70570 0.84375
			CHANNELS 3 Zrotation Yrotation Xrotation
			JOINT RightLeg
			{
				OFFSET -2.30458 -6.33178 0.00000
				CHANNELS 3 Zrotation Yrotation Xrotation
				JOINT RightFoot
				{
					OFFSET -2.62261 -7.20556 0.00000
					CHANNELS 3 Zrotation Yrotation Xrotation
					JOINT RightToeBase
					{
						OFFSET -0.18709 -0.51403 2.51340
						CHANNELS 3 Zrotation Yrotation Xrotation
						End Site
						{
							OFFSET -0.00000 -0.00000 1.28858
						}
					}
				}
			}
		}
	}
	JOINT LowerBack
	{
		OFFSET 0 0 0
		CHANNELS 3 Zrotation Yrotation Xrotation
		JOINT Spine
		{
			OFFSET -0.03798 2.19274 -0.19881
			CHANNELS 3 Zrotation Yrotation Xrotation
			JOINT Spine1
			{
				OFFSET -0.00024 2.19460 0.05248
				CHANNELS 3 Zrotation Yrotation Xrotation
				JOINT Neck
				{
					OFFSET 0 0 0
					CHANNELS 3 Zrotation Yrotation Xrotation
					JOINT Neck1
					{
						OFFSET -0.00746 1.82323 0.17286
						CHANNELS 3 Zrotation Yrotation Xrotation
						JOINT Head
						{
							OFFSET 0.11826 1.82121 -0.27841
							CHANNELS 3 Zrotation Yrotation Xrotation
							End Site
							{
								OFFSET 0.03496 1.85543 -0.11495
							}
						}
					}
				}
				JOINT LeftShoulder
				{
					OFFSET 0 0 0
					CHANNELS 3 Zrotation Yrotation Xrotation
					JOINT LeftArm
					{
						OFFSET 3.71926 0.78840 0.25473
						CHANNELS 3 Zrotation Yrotation Xrotation
						JOINT LeftForeArm
						{
							OFFSET 5.37587 -0.00000 0.00000
							CHANNELS 3 Zrotation Yrotation Xrotation
							JOINT LeftHand
							{
								OFFSET 3.35977 -0.00000 0.00000
								CHANNELS 3 Zrotation Yrotation Xrotation
								JOINT LeftFingerBase
								{
									OFFSET 0 0 0
									CHANNELS 3 Zrotation Yrotation Xrotation
									JOINT LeftHandIndex1
									{
										OFFSET 0.56186 -0.00000 0.00000
										CHANNELS 3 Zrotation Yrotation Xrotation
										End Site
										{
											OFFSET 0.45299 -0.00000 0.00000
										}
									}
								}
								JOINT LThumb
								{
									OFFSET 0 0 0
									CHANNELS 3 Zrotation Yrotation Xrotation
									End Site
									{
										OFFSET 0.45990 -0.00000 0.45990
									}
								}
							}
						}
					}
				}
				JOINT RightShoulder
				{
					OFFSET 0 0 0
					CHANNELS 3 Zrotation Yrotation Xrotation
					JOINT RightArm
					{
						OFFSET -3.65136 0.56074 0.01624
						CHANNELS 3 Zrotation Yrotation Xrotation
						JOINT RightForeArm
						{
							OFFSET -5.22819 -0.00000 0.00000
							CHANNELS 3 Zrotation Yrotation Xrotation
							JOINT RightHand
							{
								OFFSET -3.40764 -0.00000 0.00000
								CHANNELS 3 Zrotation Yrotation Xrotation
								JOINT RightFingerBase
								{
									OFFSET 0 0 0
									CHANNELS 3 Zrotation Yrotation Xrotation
									JOINT RightHandIndex1
									{
										OFFSET -0.58325 -0.00000 0.00000
										CHANNELS 3 Zrotation Yrotation Xrotation
										End Site
										{
											OFFSET -0.47024 -0.00000 0.00000
										}
									}
								}
								JOINT RThumb
								{
									OFFSET 0 0 0
									CHANNELS 3 Zrotation Yrotation Xrotation
									End Site
									{
										OFFSET -0.47742 -0.00000 0.47742
									}
								}
							}
						}
					}
				}
			}
		}
	}
}
MOTION
Frames: 7
Frame Time: .0083333
21.0183 16.1743 -6.3962 15.1347 -77.4446 -8.7752 0.0000 0.0000 0.0000 -20.9447 -0.9615 -19.7540 4.4907 12.7862 38.5734 1.4027 -5.5112 -21.2626 0.4169 -4.1444 -11.4833 0.0000 0.0000 0.0000 4.7611 28.3530 -40.9909 -9.9745 -17.3955 59.4031 -2.5303 0.1484 -30.1077 -0.1658 2.6230 -7.2309 -8.4013 -4.3132 17.5314 -4.3878 -7.5443 8.6517 1.3062 -4.1386 -0.0013 -4.8396 -1.8905 -9.9566 14.7857 -5.3772 19.7403 5.2314 -1.7683 8.2769 -0.0000 0.0000 0.0000 -30.2678 -36.0074 27.5961 72.6269 -58.8283 -45.0136 -0.0000 0.0000 -30.0133 22.0675 15.3693 6.1327 -7.1250 0.0000 -0.0000 -5.2772 46.4319 -0.1870 -0.0000 0.0000 0.0000 52.2854 -2.5532 36.6977 -64.9393 57.4886 -38.4798 0.0000 -0.0000 -10.3987 -35.3892 9.8925 -6.9582 7.1250 -0.0000 -0.0000 -5.8919 -17.9430 -3.8104
20.7676 16.1873 -6.3708 14.5195 -77.8439 -8.7897 0.0000 0.0000 0.0000 -20.7122 -0.1809 -17.4386 4.2196 12.4471 37.3324 1.4642 -5.3108 -21.7586 0.4665 -4.3807 -12.1502 0.0000 0.0000 0.0000 5.8147 27.9835 -38.8637 -9.1081 -16.8768 56.4633 -2.4548 0.0484 -29.6817 -0.1093 2.1314 -5.8689 -8.1996 -4.7159 16.7215 -4.3796 -7.9480 8.3732 1.2011 -4.3221 0.1237 -5.0291 -2.0256 -9.8993 14.4855 -5.6563 20.8005 5.1624 -1.9272 8.6475 -0.0000 -0.0000 0.0000 -30.9842 -35.5286 28.6581 73.0186 -58.8819 -45.3489 -0.0000 0.0000 -29.9650 22.0156 15.2491 6.0705 -7.1250 0.0000 -0.0000 -5.3009 46.2977 -0.1702 -0.0000 -0.0000 0.0000 51.3775 -3.5146 36.6822 -65.4222 57.5897 -38.8872 0.0000 -0.0000 -10.6514 -35.0114 9.8781 -6.8525 7.1250 -0.0000 -0.0000 -5.6313 -18.0113 -3.6317
20.5084 16.1942 -6.3488 14.1858 -78.2075 -9.0860 0.0000 0.0000 0.0000 -20.5119 0.7175 -15.0648 3.9347 12.0730 35.9907 1.5176 -5.2161 -22.1768 0.5198 -4.6205 -12.8293 0.0000 0.0000 0.0000 6.9271 27.3828 -36.6723 -8.3590 -16.3771 53.8457 -2.2811 0.0773 -28.5934 -0.0530 1.4853 -4.0851 -8.0817 -5.1194 15.8481 -4.3609 -8.3625 8.0628 1.1402 -4.5128 0.2643 -5.2068 -2.2317 -9.8088 14.0633 -5.9923 21.7669 5.0373 -2.1290 8.9873 0.0000 0.0000 0.0000 -32.0230 -34.7834 29.9584 73.8410 -58.9900 -46.0534 -0.0000 0.0000 -30.0257 21.9499 15.1089 5.9967 -7.1250 0.0000 -0.0000 -5.3332 46.1402 -0.1505 0.0000 0.0000 0.0000 50.4733 -4.5294 36.7489 -66.1038 57.7284 -39.4631 0.0000 -0.0000 -10.9056 -34.6491 9.9084 -6.7820 7.1250 -0.0000 -0.0000 -5.3757 -18.0230 -3.4640
20.2425 16.1980 -6.3296 14.1762 -78.5834 -9.6834 0.0000 0.0000 0.0000 -20.3385 1.7101 -12.6462 3.6344 11.6574 34.5304 1.5603 -5.1701 -22.5038 0.5793 -4.8736 -13.5483 0.0000 0.0000 0.0000 8.0339 26.6354 -34.5120 -7.7655 -15.9440 51.7135 -2.0444 0.2216 -27.0108 -0.0095 0.6292 -1.7292 -8.0316 -5.5076 14.8978 -4.3409 -8.7622 7.7127 1.0996 -4.6969 0.4156 -5.3597 -2.5056 -9.6793 13.5505 -6.3928 22.6479 4.8630 -2.3738 9.2978 0.0000 -0.0000 0.0000 -33.2688 -33.8080 31.4845 75.0318 -59.1363 -47.0748 -0.0000 0.0000 -30.1596 21.8462 14.9206 5.8935 -7.1250 0.0000 -0.0000 -5.3913 45.9274 -0.1238 0.0000 -0.0000 0.0000 49.5890 -5.5878 36.8750 -66.9515 57.8944 -40.1805 0.0000 -0.0000 -11.1583 -34.3179 9.9533 -6.7290 7.1250 -0.0000 -0.0000 -5.1399 -18.0130 -3.3120
19.9719 16.2011 -6.3132 14.4927 -78.9824 -10.5671 0.0000 0.0000 0.0000 -20.1904 2.7170 -10.1898 3.3226 11.1998 32.9567 1.5876 -5.0851 -22.7178 0.6506 -5.1594 -14.3638 0.0000 0.0000 0.0000 9.0773 25.8130 -32.4819 -7.3519 -15.6212 50.1931 -1.7862 0.3752 -25.1827 -0.0040 -0.4109 1.1290 -8.0438 -5.8824 13.8784 -4.3136 -9.1482 7.3244 1.0825 -4.8749 0.5775 -5.5316 -2.8350 -9.5117 13.0118 -6.8467 23.4306 4.6703 -2.6539 9.5750 -0.0000 -0.0000 0.0000 -34.6250 -32.6429 33.1685 76.4676 -59.2966 -48.3083 -0.0000 0.0000 -30.2819 21.6660 14.6916 5.7532 -7.1250 0.0000 -0.0000 -5.5123 45.6618 -0.0903 -0.0000 -0.0000 0.0000 48.7184 -6.6382 37.0445 -67.9111 58.0736 -40.9942 0.0000 -0.0000 -11.3995 -34.0176 10.0161 -6.6954 7.1250 -0.0000 -0.0000 -4.9235 -17.9773 -3.1753
19.6993 16.2059 -6.2985 15.1715 -79.3935 -11.7525 0.0000 0.0000 0.0000 -20.0934 3.6317 -7.7120 3.0070 10.7064 31.2958 1.5960 -4.8674 -22.8060 0.7348 -5.4764 -15.2724 0.0000 0.0000 0.0000 9.9939 24.9960 -30.6706 -7.1163 -15.4291 49.3129 -1.5600 0.6133 -23.4423 -0.0594 -1.5722 4.3248 -8.1062 -6.2519 12.8014 -4.2793 -9.5293 6.9008 1.0831 -5.0509 0.7472 -5.7517 -3.2124 -9.2923 12.5055 -7.3510 24.0858 4.4853 -2.9652 9.8073 -0.0000 -0.0000 0.0000 -36.0125 -31.3398 34.9411 78.0310 -59.4517 -49.6536 -0.0000 0.0000 -30.3618 21.3779 14.4807 5.5905 -7.1250 0.0000 -0.0000 -5.7363 45.4022 -0.0571 -0.0000 -0.0000 0.0000 47.8687 -7.6350 37.2377 -68.9233 58.2531 -41.8541 0.0000 -0.0000 -11.6059 -33.7531 10.0805 -6.6714 7.1250 -0.0000 -0.0000 -4.7319 -17.9352 -3.0552
19.4265 16.2130 -6.2868 16.1905 -79.8152 -13.2249 0.0000 0.0000 0.0000 -20.0496 4.3994 -5.2268 2.6996 10.1920 29.6009 1.5830 -4.4688 -22.7613 0.8273 -5.8029 -16.2137 0.0000 0.0000 0.0000 10.7877 24.2954 -29.0782 -7.0311 -15.3580 48.9917 -1.4021 0.8923 -22.1229 -0.1746 -2.6914 7.4207 -8.2370 -6.6173 11.7114 -4.2261 -9.9119 6.4504 1.1274 -5.2286 0.9172 -6.0390 -3.6249 -8.9902 12.0628 -7.8880 24.5699 4.3250 -3.2990 9.9721 0.0000 0.0000 0.0000 -37.3803 -29.9417 36.7244 79.5967 -59.5871 -51.0029 -0.0000 0.0000 -30.3625 20.9346 14.2888 5.3938 -7.1250 0.0000 -0.0000 -6.1063 45.1448 -0.0219 0.0000 0.0000 0.0000 47.0491 -8.5229 37.4370 -69.9179 58.4199 -42.7007 0.0000 -0.0000 -11.7565 -33.5298 10.1407 -6.6545 7.1250 -0.0000 -0.0000 -4.5695 -17.8928 -2.9540
